<svg id="Livello_1" data-name="Livello 1" xmlns="http://www.w3.org/2000/svg" viewBox="0 0 15.89 21.19"><defs><style>.cls-1{fill:#9da2ab;}</style></defs><title>upload</title><path class="cls-1" d="M10.87,7.17h5.62V20.74a1,1,0,0,1-1,1H1.6a1,1,0,0,1-1-1V1.54a1,1,0,0,1,1-1H9.87V6.18A1,1,0,0,0,10.87,7.17ZM13,14l-4-4a.72.72,0,0,0-1,0l-4,4a.67.67,0,0,0,.47,1.14H7.22v3.31a.67.67,0,0,0,.67.66H9.21a.66.66,0,0,0,.66-.66V15.12h2.7A.67.67,0,0,0,13,14Zm3.45-8.39v.26H11.2V.55h.25a1,1,0,0,1,.7.29l4,4.05A1,1,0,0,1,16.49,5.59Z" transform="translate(-0.6 -0.55)"/></svg>